<?xml version="1.0" encoding="UTF-8" standalone="no"?>
<!DOCTYPE svg PUBLIC "-//W3C//DTD SVG 1.1//EN"
 "http://www.w3.org/Graphics/SVG/1.1/DTD/svg11.dtd">
<!-- Generated by graphviz version 2.40.1 (20161225.0304)
 -->
<!-- Title: My Network Pages: 1 -->
<svg width="772pt" height="617pt"
 viewBox="0.00 0.00 772.00 616.60" xmlns="http://www.w3.org/2000/svg" xmlns:xlink="http://www.w3.org/1999/xlink">
<g id="graph0" class="graph" transform="scale(1 1) rotate(0) translate(4 612.6)">
<title>My Network</title>
<text text-anchor="middle" x="382" y="-593.4" font-family="Times,serif" font-size="14.00" fill="#000000">My Network</text>
<text text-anchor="middle" x="382" y="-562.4" font-family="Times,serif" font-size="14.00" fill="#000000"> &#160;&#160;&#160;&#160;&#160;&#160;&#160;&#160;&#160;&#160;</text>
<!-- Carrier Color Table -->
<g id="node1" class="node">
<title>Carrier Color Table</title>
<polygon fill="#ebebeb" stroke="transparent" points="8,-529.1 8,-550.1 118,-550.1 118,-529.1 8,-529.1"/>
<polygon fill="none" stroke="#000000" points="8,-529.1 8,-550.1 118,-550.1 118,-529.1 8,-529.1"/>
<text text-anchor="start" x="44.5" y="-538.7" font-family="Courier New" font-weight="bold" font-size="8.00" fill="#000000">CARRIER</text>
<polygon fill="#ebebeb" stroke="transparent" points="118,-529.1 118,-550.1 248,-550.1 248,-529.1 118,-529.1"/>
<polygon fill="none" stroke="#000000" points="118,-529.1 118,-550.1 248,-550.1 248,-529.1 118,-529.1"/>
<text text-anchor="start" x="169.5" y="-538.7" font-family="Courier New" font-weight="bold" font-size="8.00" fill="#000000">COLOR</text>
<polygon fill="none" stroke="#000000" points="8,-508.1 8,-529.1 118,-529.1 118,-508.1 8,-508.1"/>
<text text-anchor="start" x="55" y="-516.7" font-family="Courier New" font-size="8.00" fill="#ff0000">oil</text>
<polygon fill="#ff0000" stroke="transparent" points="118,-508.1 118,-529.1 248,-529.1 248,-508.1 118,-508.1"/>
<polygon fill="none" stroke="#000000" points="118,-508.1 118,-529.1 248,-529.1 248,-508.1 118,-508.1"/>
<polygon fill="none" stroke="#000000" points="8,-487.1 8,-508.1 118,-508.1 118,-487.1 8,-487.1"/>
<text text-anchor="start" x="34" y="-495.7" font-family="Courier New" font-size="8.00" fill="#ff0000">electricity</text>
<polygon fill="#cbff00" stroke="transparent" points="118,-487.1 118,-508.1 248,-508.1 248,-487.1 118,-487.1"/>
<polygon fill="none" stroke="#000000" points="118,-487.1 118,-508.1 248,-508.1 248,-487.1 118,-487.1"/>
<polygon fill="none" stroke="#000000" points="8,-466.1 8,-487.1 118,-487.1 118,-466.1 8,-466.1"/>
<text text-anchor="start" x="44.5" y="-474.7" font-family="Courier New" font-size="8.00" fill="#ff0000">vehicle</text>
<polygon fill="#00ff66" stroke="transparent" points="118,-466.1 118,-487.1 248,-487.1 248,-466.1 118,-466.1"/>
<polygon fill="none" stroke="#000000" points="118,-466.1 118,-487.1 248,-487.1 248,-466.1 118,-466.1"/>
<polygon fill="none" stroke="#000000" points="8,-445.1 8,-466.1 118,-466.1 118,-445.1 8,-445.1"/>
<text text-anchor="start" x="49.5" y="-453.7" font-family="Courier New" font-size="8.00" fill="#ff0000">solar</text>
<polygon fill="#0065ff" stroke="transparent" points="118,-445.1 118,-466.1 248,-466.1 248,-445.1 118,-445.1"/>
<polygon fill="none" stroke="#000000" points="118,-445.1 118,-466.1 248,-466.1 248,-445.1 118,-445.1"/>
</g>
<!-- oil (generator) -->
<g id="node2" class="node">
<title>oil (generator)</title>
<g id="a_node2"><a xlink:title="Generator: oil&#10;Bus: oil bus&#10;Carrier: &#10;Extendable nominal power: True&#10;Nominal power: 100.00 MW&#10;Power set: 0.00 MW&#10;Efficiency: 1.00&#10;Capital cost: 30171.78 currency/MW&#10;Marginal cost: 6.00 currency/MWh&#10;Optimised nominal power: 5359.95 MW">
<ellipse fill="none" stroke="#000000" stroke-width="2" cx="368" cy="-498.1" rx="39.5" ry="39.5"/>
<text text-anchor="middle" x="368" y="-496.2" font-family="Courier New" font-size="8.00" fill="#ff0000">oil</text>
</a>
</g>
</g>
<!-- oil bus (bus) -->
<g id="node3" class="node">
<title>oil bus (bus)</title>
<g id="a_node3"><a xlink:title="Bus: oil bus&#10;Carrier: oil&#10;Unit: &#10;Generators: 1&#10;Loads: 0&#10;Stores: 0&#10;Incoming links: 0&#10;Outgoing links: 1">
<polygon fill="none" stroke="transparent" stroke-width="7" points="476,-368.6 260,-368.6 260,-346.6 476,-346.6 476,-368.6"/>
<polyline fill="none" stroke="#ff0000" stroke-width="7" points="260,-346.6 476,-346.6 "/>
<text text-anchor="middle" x="368" y="-355.7" font-family="Courier New" font-size="8.00" fill="#ff0000">oil bus</text>
</a>
</g>
</g>
<!-- oil (generator)&#45;&gt;oil bus (bus) -->
<g id="edge1" class="edge">
<title>oil (generator)&#45;&gt;oil bus (bus)</title>
<path fill="none" stroke="#000000" stroke-width="1.5" d="M368,-458.589C368,-428.071 368,-387.9123 368,-368.7312"/>
</g>
<!-- ICE Vehicle (multi&#45;link) -->
<g id="node8" class="node">
<title>ICE Vehicle (multi&#45;link)</title>
<g id="a_node8"><a xlink:title="Multi&#45;link: ICE Vehicle&#10;From: oil bus (bus0)&#10;To: 1 bus (2 missing)">
<ellipse fill="#000000" stroke="#000000" cx="444" cy="-263.8" rx="1.8" ry="1.8"/>
</a>
</g>
</g>
<!-- oil bus (bus)&#45;&gt;ICE Vehicle (multi&#45;link) -->
<g id="edge4" class="edge">
<title>oil bus (bus)&#45;&gt;ICE Vehicle (multi&#45;link)</title>
<g id="a_edge4"><a xlink:title="Multi&#45;link: ICE Vehicle&#10;Carrier: vehicle&#10;Extendable nominal power: True&#10;Nominal power: 0.00 MW&#10;Optimised nominal power: 5359.95 MW">
<path fill="none" stroke="#000000" stroke-width="1.5" d="M377.0166,-346.4716C395.2609,-323.9543 435.4501,-274.3523 442.8253,-265.2499"/>
</a>
</g>
<text text-anchor="middle" x="442" y="-304.2" font-family="Courier New" font-size="8.00" fill="#ff0000">ICE Vehicle</text>
</g>
<!-- solar (generator) -->
<g id="node4" class="node">
<title>solar (generator)</title>
<g id="a_node4"><a xlink:title="Generator: solar&#10;Bus: electricity bus&#10;Carrier: solar&#10;Extendable nominal power: True&#10;Nominal power: 0.00 MW&#10;Power set: 0.00 MW&#10;Efficiency: 1.00&#10;Capital cost: 47384.95 currency/MW&#10;Marginal cost: 0.01 currency/MWh&#10;Optimised nominal power: 0.00 MW">
<ellipse fill="none" stroke="#0065ff" stroke-width="2" cx="656" cy="-498.1" rx="39.5" ry="39.5"/>
<text text-anchor="middle" x="656" y="-496.2" font-family="Courier New" font-size="8.00" fill="#ff0000">solar</text>
</a>
</g>
</g>
<!-- electricity bus (bus) -->
<g id="node5" class="node">
<title>electricity bus (bus)</title>
<g id="a_node5"><a xlink:title="Bus: electricity bus&#10;Carrier: electricity&#10;Unit: &#10;Generators: 1&#10;Loads: 0&#10;Stores: 0&#10;Incoming links: 0&#10;Outgoing links: 1">
<polygon fill="none" stroke="transparent" stroke-width="7" points="764,-368.6 548,-368.6 548,-346.6 764,-346.6 764,-368.6"/>
<polyline fill="none" stroke="#cbff00" stroke-width="7" points="548,-346.6 764,-346.6 "/>
<text text-anchor="middle" x="656" y="-355.7" font-family="Courier New" font-size="8.00" fill="#ff0000">electricity bus</text>
</a>
</g>
</g>
<!-- solar (generator)&#45;&gt;electricity bus (bus) -->
<g id="edge2" class="edge">
<title>solar (generator)&#45;&gt;electricity bus (bus)</title>
<path fill="none" stroke="#0065ff" stroke-width="1.5" d="M656,-458.589C656,-428.071 656,-387.9123 656,-368.7312"/>
</g>
<!-- EV (multi&#45;link) -->
<g id="node9" class="node">
<title>EV (multi&#45;link)</title>
<g id="a_node9"><a xlink:title="Multi&#45;link: EV&#10;From: electricity bus (bus0)&#10;To: 1 bus (2 missing)">
<ellipse fill="#000000" stroke="#000000" cx="607" cy="-263.8" rx="1.8" ry="1.8"/>
</a>
</g>
</g>
<!-- electricity bus (bus)&#45;&gt;EV (multi&#45;link) -->
<g id="edge6" class="edge">
<title>electricity bus (bus)&#45;&gt;EV (multi&#45;link)</title>
<g id="a_edge6"><a xlink:title="Multi&#45;link: EV&#10;Carrier: vehicle&#10;Extendable nominal power: True&#10;Nominal power: 0.00 MW&#10;Optimised nominal power: 0.00 MW">
<path fill="none" stroke="#000000" stroke-width="1.5" d="M650.1866,-346.4716C638.5253,-324.1484 612.9581,-275.2055 607.8851,-265.4943"/>
</a>
</g>
<text text-anchor="middle" x="636.5" y="-304.2" font-family="Courier New" font-size="8.00" fill="#ff0000">EV</text>
</g>
<!-- load2 (load) -->
<g id="node6" class="node">
<title>load2 (load)</title>
<g id="a_node6"><a xlink:title="Load: load2&#10;Bus: vehicle bus&#10;Carrier: vehicle&#10;Power set: [391.72, 374.33, 439.85, ...] MW">
<polygon fill="none" stroke="#00ff66" stroke-width="2" points="511,0 561.5,-64.5 460.5,-64.5 511,0"/>
<text text-anchor="middle" x="511" y="-41.1" font-family="Courier New" font-size="8.00" fill="#ff0000">load2</text>
</a>
</g>
</g>
<!-- vehicle bus (bus) -->
<g id="node7" class="node">
<title>vehicle bus (bus)</title>
<g id="a_node7"><a xlink:title="Bus: vehicle bus&#10;Carrier: vehicle&#10;Unit: &#10;Generators: 0&#10;Loads: 1&#10;Stores: 0&#10;Incoming links: 2&#10;Outgoing links: 0">
<polygon fill="none" stroke="transparent" stroke-width="7" points="619,-181 403,-181 403,-159 619,-159 619,-181"/>
<polyline fill="none" stroke="#00ff66" stroke-width="7" points="403,-159 619,-159 "/>
<text text-anchor="middle" x="511" y="-168.1" font-family="Courier New" font-size="8.00" fill="#ff0000">vehicle bus</text>
</a>
</g>
</g>
<!-- vehicle bus (bus)&#45;&gt;load2 (load) -->
<g id="edge3" class="edge">
<title>vehicle bus (bus)&#45;&gt;load2 (load)</title>
<path fill="none" stroke="#00ff66" stroke-width="1.5" d="M511,-158.7296C511,-137.6038 511,-91.7317 511,-64.5124"/>
</g>
<!-- ICE Vehicle (multi&#45;link)&#45;&gt;vehicle bus (bus) -->
<g id="edge5" class="edge">
<title>ICE Vehicle (multi&#45;link)&#45;&gt;vehicle bus (bus)</title>
<g id="a_edge5"><a xlink:title="Multi&#45;link: ICE Vehicle&#10;From: oil bus (bus0)&#10;To: vehicle bus (bus1)&#10;Carrier: vehicle&#10;Extendable nominal power: True&#10;Nominal power: 0.00 MW&#10;Efficiency: 1.00&#10;Optimised nominal power: 5359.95 MW">
<path fill="none" stroke="#000000" stroke-width="1.5" d="M444.2578,-261.7891C445.4063,-252.8313 450,-217 450,-217 450,-217 469.9193,-201.6524 486.9924,-188.4976"/>
<polygon fill="#000000" stroke="#000000" stroke-width="1.5" points="496.5439,-181.1383 490.334,-192.74 491.9436,-184.9984 487.1907,-188.6605 487.0381,-188.4624 486.8856,-188.2644 491.6384,-184.6024 483.7423,-184.1849 496.5439,-181.1383 496.5439,-181.1383"/>
</a>
</g>
<text text-anchor="middle" x="479" y="-219.6" font-family="Courier New" font-size="8.00" fill="#ff0000">ICE Vehicle</text>
</g>
<!-- EV (multi&#45;link)&#45;&gt;vehicle bus (bus) -->
<g id="edge7" class="edge">
<title>EV (multi&#45;link)&#45;&gt;vehicle bus (bus)</title>
<g id="a_edge7"><a xlink:title="Multi&#45;link: EV&#10;From: electricity bus (bus0)&#10;To: vehicle bus (bus1)&#10;Carrier: vehicle&#10;Extendable nominal power: True&#10;Nominal power: 0.00 MW&#10;Efficiency: 1.00&#10;Optimised nominal power: 0.00 MW">
<path fill="none" stroke="#000000" stroke-width="1.5" d="M605.6429,-262.474C597.681,-254.6945 556.5179,-214.4748 531.171,-189.7088"/>
<polygon fill="#000000" stroke="#000000" stroke-width="1.5" points="522.3332,-181.0734 534.6901,-185.5974 526.7994,-185.0878 531.091,-189.281 530.9162,-189.4598 530.7415,-189.6387 526.45,-185.4455 527.1424,-193.3222 522.3332,-181.0734 522.3332,-181.0734"/>
</a>
</g>
<text text-anchor="middle" x="573.5" y="-219.6" font-family="Courier New" font-size="8.00" fill="#ff0000">EV</text>
</g>
</g>
</svg>
