<?xml version="1.0" encoding="UTF-8" standalone="no"?>
<!DOCTYPE svg PUBLIC "-//W3C//DTD SVG 1.1//EN"
 "http://www.w3.org/Graphics/SVG/1.1/DTD/svg11.dtd">
<!-- Generated by graphviz version 2.40.1 (20161225.0304)
 -->
<!-- Title: My Network Pages: 1 -->
<svg width="1126pt" height="742pt"
 viewBox="0.00 0.00 1125.50 742.00" xmlns="http://www.w3.org/2000/svg" xmlns:xlink="http://www.w3.org/1999/xlink">
<g id="graph0" class="graph" transform="scale(1 1) rotate(0) translate(4 738)">
<title>My Network</title>
<text text-anchor="middle" x="558.75" y="-718.8" font-family="Times,serif" font-size="14.00" fill="#000000">My Network</text>
<text text-anchor="middle" x="558.75" y="-687.8" font-family="Times,serif" font-size="14.00" fill="#000000"> &#160;&#160;&#160;&#160;&#160;&#160;&#160;&#160;&#160;&#160;</text>
<!-- Carrier Color Table -->
<g id="node1" class="node">
<title>Carrier Color Table</title>
<polygon fill="#ebebeb" stroke="transparent" points="8.5,-654.5 8.5,-675.5 131.5,-675.5 131.5,-654.5 8.5,-654.5"/>
<polygon fill="none" stroke="#000000" points="8.5,-654.5 8.5,-675.5 131.5,-675.5 131.5,-654.5 8.5,-654.5"/>
<text text-anchor="start" x="51.5" y="-664.1" font-family="Courier New" font-weight="bold" font-size="8.00" fill="#000000">CARRIER</text>
<polygon fill="#ebebeb" stroke="transparent" points="131.5,-654.5 131.5,-675.5 261.5,-675.5 261.5,-654.5 131.5,-654.5"/>
<polygon fill="none" stroke="#000000" points="131.5,-654.5 131.5,-675.5 261.5,-675.5 261.5,-654.5 131.5,-654.5"/>
<text text-anchor="start" x="183" y="-664.1" font-family="Courier New" font-weight="bold" font-size="8.00" fill="#000000">COLOR</text>
<polygon fill="none" stroke="#000000" points="8.5,-633.5 8.5,-654.5 131.5,-654.5 131.5,-633.5 8.5,-633.5"/>
<text text-anchor="start" x="62" y="-642.1" font-family="Courier New" font-size="8.00" fill="#ff0000">oil</text>
<polygon fill="#ff0000" stroke="transparent" points="131.5,-633.5 131.5,-654.5 261.5,-654.5 261.5,-633.5 131.5,-633.5"/>
<polygon fill="none" stroke="#000000" points="131.5,-633.5 131.5,-654.5 261.5,-654.5 261.5,-633.5 131.5,-633.5"/>
<polygon fill="none" stroke="#000000" points="8.5,-612.5 8.5,-633.5 131.5,-633.5 131.5,-612.5 8.5,-612.5"/>
<text text-anchor="start" x="41" y="-621.1" font-family="Courier New" font-size="8.00" fill="#ff0000">electricity</text>
<polygon fill="#ffda00" stroke="transparent" points="131.5,-612.5 131.5,-633.5 261.5,-633.5 261.5,-612.5 131.5,-612.5"/>
<polygon fill="none" stroke="#000000" points="131.5,-612.5 131.5,-633.5 261.5,-633.5 261.5,-612.5 131.5,-612.5"/>
<polygon fill="none" stroke="#000000" points="8.5,-591.5 8.5,-612.5 131.5,-612.5 131.5,-591.5 8.5,-591.5"/>
<text text-anchor="start" x="64.5" y="-600.1" font-family="Courier New" font-size="8.00" fill="#ff0000">AC</text>
<polygon fill="#48ff00" stroke="transparent" points="131.5,-591.5 131.5,-612.5 261.5,-612.5 261.5,-591.5 131.5,-591.5"/>
<polygon fill="none" stroke="#000000" points="131.5,-591.5 131.5,-612.5 261.5,-612.5 261.5,-591.5 131.5,-591.5"/>
<polygon fill="none" stroke="#000000" points="8.5,-570.5 8.5,-591.5 131.5,-591.5 131.5,-570.5 8.5,-570.5"/>
<text text-anchor="start" x="14.5" y="-579.1" font-family="Courier New" font-size="8.00" fill="#ff0000">land transport demand</text>
<polygon fill="#00ff91" stroke="transparent" points="131.5,-570.5 131.5,-591.5 261.5,-591.5 261.5,-570.5 131.5,-570.5"/>
<polygon fill="none" stroke="#000000" points="131.5,-570.5 131.5,-591.5 261.5,-591.5 261.5,-570.5 131.5,-570.5"/>
<polygon fill="none" stroke="#000000" points="8.5,-549.5 8.5,-570.5 131.5,-570.5 131.5,-549.5 8.5,-549.5"/>
<text text-anchor="start" x="62" y="-558.1" font-family="Courier New" font-size="8.00" fill="#ff0000">co2</text>
<polygon fill="#0091ff" stroke="transparent" points="131.5,-549.5 131.5,-570.5 261.5,-570.5 261.5,-549.5 131.5,-549.5"/>
<polygon fill="none" stroke="#000000" points="131.5,-549.5 131.5,-570.5 261.5,-570.5 261.5,-549.5 131.5,-549.5"/>
<polygon fill="none" stroke="#000000" points="8.5,-528.5 8.5,-549.5 131.5,-549.5 131.5,-528.5 8.5,-528.5"/>
<text text-anchor="start" x="56.5" y="-537.1" font-family="Courier New" font-size="8.00" fill="#ff0000">solar</text>
<polygon fill="#4800ff" stroke="transparent" points="131.5,-528.5 131.5,-549.5 261.5,-549.5 261.5,-528.5 131.5,-528.5"/>
<polygon fill="none" stroke="#000000" points="131.5,-528.5 131.5,-549.5 261.5,-549.5 261.5,-528.5 131.5,-528.5"/>
</g>
<!-- oil (generator) -->
<g id="node2" class="node">
<title>oil (generator)</title>
<g id="a_node2"><a xlink:title="Generator: oil&#10;Bus: oil bus&#10;Carrier: oil&#10;Extendable nominal power: True&#10;Nominal power: 0.00 MW&#10;Power set: 0.00 MW&#10;Efficiency: 1.00&#10;Capital cost: 0.00 currency/MW&#10;Marginal cost: 50.00 currency/MWh&#10;Optimised nominal power: 0.00 MW">
<ellipse fill="none" stroke="#ff0000" stroke-width="2" cx="380.5" cy="-602.5" rx="39.5" ry="39.5"/>
<text text-anchor="middle" x="380.5" y="-600.6" font-family="Courier New" font-size="8.00" fill="#ff0000">oil</text>
</a>
</g>
</g>
<!-- oil bus (bus) -->
<g id="node3" class="node">
<title>oil bus (bus)</title>
<g id="a_node3"><a xlink:title="Bus: oil bus&#10;Carrier: oil&#10;Unit: &#10;Generators: 1&#10;Loads: 0&#10;Stores: 0&#10;Incoming links: 0&#10;Outgoing links: 2">
<polygon fill="none" stroke="transparent" stroke-width="7" points="488.5,-452 272.5,-452 272.5,-430 488.5,-430 488.5,-452"/>
<polyline fill="none" stroke="#ff0000" stroke-width="7" points="272.5,-430 488.5,-430 "/>
<text text-anchor="middle" x="380.5" y="-439.1" font-family="Courier New" font-size="8.00" fill="#ff0000">oil bus</text>
</a>
</g>
</g>
<!-- oil (generator)&#45;&gt;oil bus (bus) -->
<g id="edge1" class="edge">
<title>oil (generator)&#45;&gt;oil bus (bus)</title>
<path fill="none" stroke="#ff0000" stroke-width="1.5" d="M380.5,-562.9927C380.5,-526.5735 380.5,-474.8546 380.5,-452.2752"/>
</g>
<!-- ICE Vehicle (multi&#45;link) -->
<g id="node14" class="node">
<title>ICE Vehicle (multi&#45;link)</title>
<g id="a_node14"><a xlink:title="Multi&#45;link: ICE Vehicle&#10;From: oil bus (bus0)&#10;To: 2 buses (1 missing)">
<ellipse fill="#000000" stroke="#000000" cx="380.5" cy="-309.5" rx="1.8" ry="1.8"/>
</a>
</g>
</g>
<!-- oil bus (bus)&#45;&gt;ICE Vehicle (multi&#45;link) -->
<g id="edge10" class="edge">
<title>oil bus (bus)&#45;&gt;ICE Vehicle (multi&#45;link)</title>
<g id="a_edge10"><a xlink:title="Multi&#45;link: ICE Vehicle&#10;Carrier: land transport demand&#10;Extendable nominal power: True&#10;Nominal power: 0.00 MW&#10;Optimised nominal power: 0.00 MW">
<path fill="none" stroke="#000000" stroke-width="1.5" d="M380.5,-429.7884C380.5,-400.7209 380.5,-324.2902 380.5,-311.3684"/>
</a>
</g>
<text text-anchor="middle" x="409.5" y="-387.6" font-family="Courier New" font-size="8.00" fill="#ff0000">ICE Vehicle</text>
</g>
<!-- solar (generator) -->
<g id="node4" class="node">
<title>solar (generator)</title>
<g id="a_node4"><a xlink:title="Generator: solar&#10;Bus: electricity bus&#10;Carrier: solar&#10;Extendable nominal power: True&#10;Nominal power: 0.00 MW&#10;Power set: 0.00 MW&#10;Efficiency: 1.00&#10;Capital cost: 35430566.12 currency/MW&#10;Marginal cost: 0.01 currency/MWh&#10;Optimised nominal power: 0.00 MW">
<ellipse fill="none" stroke="#4800ff" stroke-width="2" cx="716.5" cy="-309.5" rx="39.5" ry="39.5"/>
<text text-anchor="middle" x="716.5" y="-307.6" font-family="Courier New" font-size="8.00" fill="#ff0000">solar</text>
</a>
</g>
</g>
<!-- electricity bus (bus) -->
<g id="node5" class="node">
<title>electricity bus (bus)</title>
<g id="a_node5"><a xlink:title="Bus: electricity bus&#10;Carrier: electricity&#10;Unit: &#10;Generators: 1&#10;Loads: 0&#10;Stores: 0&#10;Incoming links: 1&#10;Outgoing links: 1">
<polygon fill="none" stroke="transparent" stroke-width="7" points="983.5,-189 767.5,-189 767.5,-167 983.5,-167 983.5,-189"/>
<polyline fill="none" stroke="#ffda00" stroke-width="7" points="767.5,-167 983.5,-167 "/>
<text text-anchor="middle" x="875.5" y="-176.1" font-family="Courier New" font-size="8.00" fill="#ff0000">electricity bus</text>
</a>
</g>
</g>
<!-- solar (generator)&#45;&gt;electricity bus (bus) -->
<g id="edge2" class="edge">
<title>solar (generator)&#45;&gt;electricity bus (bus)</title>
<path fill="none" stroke="#4800ff" stroke-width="1.5" d="M747.1568,-284.1455C781.8095,-255.4862 836.6762,-210.109 861.9437,-189.2116"/>
</g>
<!-- battery charger (multi&#45;link) -->
<g id="node12" class="node">
<title>battery charger (multi&#45;link)</title>
<g id="a_node12"><a xlink:title="Multi&#45;link: battery charger&#10;From: electricity bus (bus0)&#10;To: 1 bus (2 missing)">
<ellipse fill="#000000" stroke="#000000" cx="1046.5" cy="-43" rx="1.8" ry="1.8"/>
</a>
</g>
</g>
<!-- electricity bus (bus)&#45;&gt;battery charger (multi&#45;link) -->
<g id="edge6" class="edge">
<title>electricity bus (bus)&#45;&gt;battery charger (multi&#45;link)</title>
<g id="a_edge6"><a xlink:title="Multi&#45;link: battery charger&#10;Carrier: battery charger&#10;Extendable nominal power: True&#10;Nominal power: 0.00 MW&#10;Optimised nominal power: 0.00 MW">
<path fill="none" stroke="#000000" stroke-width="1.5" d="M889.4936,-166.9524C927.4619,-136.9774 1030.5365,-55.6028 1044.8436,-44.3077"/>
</a>
</g>
<text text-anchor="middle" x="985" y="-124.6" font-family="Courier New" font-size="8.00" fill="#ff0000">battery charger</text>
</g>
<!-- load2 (load) -->
<g id="node6" class="node">
<title>load2 (load)</title>
<g id="a_node6"><a xlink:title="Load: load2&#10;Bus: land transport bus&#10;Carrier: land transport demand&#10;Power set: [136.05, 130.27, 153.25, ...] MW">
<polygon fill="none" stroke="#00ff91" stroke-width="2" points="587.5,0 638,-64.5 537,-64.5 587.5,0"/>
<text text-anchor="middle" x="587.5" y="-41.1" font-family="Courier New" font-size="8.00" fill="#ff0000">load2</text>
</a>
</g>
</g>
<!-- land transport bus (bus) -->
<g id="node7" class="node">
<title>land transport bus (bus)</title>
<g id="a_node7"><a xlink:title="Bus: land transport bus&#10;Carrier: land transport demand&#10;Unit: &#10;Generators: 0&#10;Loads: 1&#10;Stores: 0&#10;Incoming links: 2&#10;Outgoing links: 0">
<polygon fill="none" stroke="transparent" stroke-width="7" points="695.5,-189 479.5,-189 479.5,-167 695.5,-167 695.5,-189"/>
<polyline fill="none" stroke="#00ff91" stroke-width="7" points="479.5,-167 695.5,-167 "/>
<text text-anchor="middle" x="587.5" y="-176.1" font-family="Courier New" font-size="8.00" fill="#ff0000">land transport bus</text>
</a>
</g>
</g>
<!-- land transport bus (bus)&#45;&gt;load2 (load) -->
<g id="edge3" class="edge">
<title>land transport bus (bus)&#45;&gt;load2 (load)</title>
<path fill="none" stroke="#00ff91" stroke-width="1.5" d="M587.5,-166.9524C587.5,-144.6601 587.5,-93.9393 587.5,-64.758"/>
</g>
<!-- battery storage (store) -->
<g id="node8" class="node">
<title>battery storage (store)</title>
<g id="a_node8"><a xlink:title="Store: battery storage&#10;Bus: EV battery bus&#10;Carrier: &#10;Extendable nominal energy: True&#10;Nominal energy: 0.00 MWh&#10;Power set: 0.00 MW&#10;Cyclic energy: True&#10;Capital cost: 75000.00 currency/MW&#10;Marginal cost: 0.00 currency/MWh&#10;Optimised nominal energy: 0.00 MWh">
<polygon fill="none" stroke="#000000" stroke-width="2" points="998,-327.5 903,-327.5 903,-291.5 998,-291.5 998,-327.5"/>
<text text-anchor="middle" x="950.5" y="-307.6" font-family="Courier New" font-size="8.00" fill="#ff0000">battery storage</text>
</a>
</g>
</g>
<!-- EV battery bus (bus) -->
<g id="node9" class="node">
<title>EV battery bus (bus)</title>
<g id="a_node9"><a xlink:title="Bus: EV battery bus&#10;Carrier: AC&#10;Unit: &#10;Generators: 0&#10;Loads: 0&#10;Stores: 1&#10;Incoming links: 1&#10;Outgoing links: 2">
<polygon fill="none" stroke="transparent" stroke-width="7" points="989.5,-452 773.5,-452 773.5,-430 989.5,-430 989.5,-452"/>
<polyline fill="none" stroke="#48ff00" stroke-width="7" points="773.5,-430 989.5,-430 "/>
<text text-anchor="middle" x="881.5" y="-439.1" font-family="Courier New" font-size="8.00" fill="#ff0000">EV battery bus</text>
</a>
</g>
</g>
<!-- EV battery bus (bus)&#45;&gt;battery storage (store) -->
<g id="edge4" class="edge">
<title>EV battery bus (bus)&#45;&gt;battery storage (store)</title>
<path fill="none" stroke="#000000" stroke-width="1.5" d="M894.4217,-419.31C901.762,-406.9887 909.5,-394 909.5,-394 909.5,-394 924.4388,-363.2116 936.2815,-338.8039"/>
<polygon fill="#000000" stroke="#000000" stroke-width="1.5" points="888.278,-429.6226 889.7806,-416.5496 891.1341,-424.34 894.205,-419.1854 894.4197,-419.3134 894.6345,-419.4413 891.5637,-424.5959 899.0589,-422.0771 888.278,-429.6226 888.278,-429.6226"/>
<polygon fill="#000000" stroke="#000000" stroke-width="1.5" points="941.6036,-327.8352 941.2235,-340.9888 939.2093,-333.3425 936.5901,-338.7406 936.3651,-338.6315 936.1402,-338.5224 938.7595,-333.1242 931.5068,-336.2742 941.6036,-327.8352 941.6036,-327.8352"/>
</g>
<!-- battery discharger (multi&#45;link) -->
<g id="node13" class="node">
<title>battery discharger (multi&#45;link)</title>
<g id="a_node13"><a xlink:title="Multi&#45;link: battery discharger&#10;From: EV battery bus (bus0)&#10;To: 1 bus (2 missing)">
<ellipse fill="#000000" stroke="#000000" cx="829.5" cy="-309.5" rx="1.8" ry="1.8"/>
</a>
</g>
</g>
<!-- EV battery bus (bus)&#45;&gt;battery discharger (multi&#45;link) -->
<g id="edge8" class="edge">
<title>EV battery bus (bus)&#45;&gt;battery discharger (multi&#45;link)</title>
<g id="a_edge8"><a xlink:title="Multi&#45;link: battery discharger&#10;Carrier: battery discharger&#10;Extendable nominal power: True&#10;Nominal power: 0.00 MW&#10;Optimised nominal power: 0.00 MW">
<path fill="none" stroke="#000000" stroke-width="1.5" d="M862.3041,-429.8617C838.3513,-415.9631 800.5,-394 800.5,-394 800.5,-394 800.5,-385 800.5,-385 800.5,-385 824.3174,-322.9927 828.7831,-311.3663"/>
</a>
</g>
<text text-anchor="middle" x="848" y="-387.6" font-family="Courier New" font-size="8.00" fill="#ff0000">battery discharger</text>
</g>
<!-- EV (multi&#45;link) -->
<g id="node15" class="node">
<title>EV (multi&#45;link)</title>
<g id="a_node15"><a xlink:title="Multi&#45;link: EV&#10;From: EV battery bus (bus0)&#10;To: 1 bus (2 missing)">
<ellipse fill="#000000" stroke="#000000" cx="599.5" cy="-309.5" rx="1.8" ry="1.8"/>
</a>
</g>
</g>
<!-- EV battery bus (bus)&#45;&gt;EV (multi&#45;link) -->
<g id="edge13" class="edge">
<title>EV battery bus (bus)&#45;&gt;EV (multi&#45;link)</title>
<g id="a_edge13"><a xlink:title="Multi&#45;link: EV&#10;Carrier: land transport demand&#10;Extendable nominal power: True&#10;Nominal power: 0.00 MW&#10;Optimised nominal power: 0.00 MW">
<path fill="none" stroke="#000000" stroke-width="1.5" d="M852.5504,-429.9027C788.7177,-405.4335 641.5,-349 641.5,-349 641.5,-349 608.1851,-317.6681 600.8974,-310.8142"/>
</a>
</g>
<text text-anchor="middle" x="759" y="-387.6" font-family="Courier New" font-size="8.00" fill="#ff0000">EV</text>
</g>
<!-- co2 atmosphere (store) -->
<g id="node10" class="node">
<title>co2 atmosphere (store)</title>
<g id="a_node10"><a xlink:title="Store: co2 atmosphere&#10;Bus: co2 atmosphere&#10;Carrier: co2&#10;Extendable nominal energy: False&#10;Nominal energy: 0.00 MWh&#10;Power set: 0.00 MW&#10;Cyclic energy: False&#10;Capital cost: 0.00 currency/MW&#10;Marginal cost: 0.00 currency/MWh&#10;Optimised nominal energy: 0.00 MWh">
<polygon fill="none" stroke="#0091ff" stroke-width="2" points="346.5,-61 252.5,-61 252.5,-25 346.5,-25 346.5,-61"/>
<text text-anchor="middle" x="299.5" y="-41.1" font-family="Courier New" font-size="8.00" fill="#ff0000">co2 atmosphere</text>
</a>
</g>
</g>
<!-- co2 atmosphere (bus) -->
<g id="node11" class="node">
<title>co2 atmosphere (bus)</title>
<g id="a_node11"><a xlink:title="Bus: co2 atmosphere&#10;Carrier: co2&#10;Unit: &#10;Generators: 0&#10;Loads: 0&#10;Stores: 1&#10;Incoming links: 1&#10;Outgoing links: 0">
<polygon fill="none" stroke="transparent" stroke-width="7" points="407.5,-189 191.5,-189 191.5,-167 407.5,-167 407.5,-189"/>
<polyline fill="none" stroke="#0091ff" stroke-width="7" points="191.5,-167 407.5,-167 "/>
<text text-anchor="middle" x="299.5" y="-176.1" font-family="Courier New" font-size="8.00" fill="#ff0000">co2 atmosphere</text>
</a>
</g>
</g>
<!-- co2 atmosphere (bus)&#45;&gt;co2 atmosphere (store) -->
<g id="edge5" class="edge">
<title>co2 atmosphere (bus)&#45;&gt;co2 atmosphere (store)</title>
<path fill="none" stroke="#0091ff" stroke-width="1.5" d="M299.5,-154.7856C299.5,-132.3673 299.5,-98.2833 299.5,-73.6458"/>
<polygon fill="#0091ff" stroke="#0091ff" stroke-width="1.5" points="299.5,-166.9524 294.1001,-154.9523 299.25,-160.9524 299.2501,-154.9524 299.5001,-154.9524 299.7501,-154.9524 299.75,-160.9524 304.9001,-154.9524 299.5,-166.9524 299.5,-166.9524"/>
<polygon fill="#0091ff" stroke="#0091ff" stroke-width="1.5" points="299.5,-61.4 304.9001,-73.3999 299.75,-67.4 299.7501,-73.4 299.5001,-73.4 299.2501,-73.4 299.25,-67.4 294.1001,-73.4 299.5,-61.4 299.5,-61.4"/>
</g>
<!-- battery charger (multi&#45;link)&#45;&gt;EV battery bus (bus) -->
<g id="edge7" class="edge">
<title>battery charger (multi&#45;link)&#45;&gt;EV battery bus (bus)</title>
<g id="a_edge7"><a xlink:title="Multi&#45;link: battery charger&#10;From: electricity bus (bus0)&#10;To: EV battery bus (bus1)&#10;Carrier: battery charger&#10;Extendable nominal power: True&#10;Nominal power: 0.00 MW&#10;Efficiency: 0.90&#10;Optimised nominal power: 0.00 MW">
<path fill="none" stroke="#000000" stroke-width="1.5" d="M1046.4234,-44.9541C1045.4014,-71.0151 1034.5,-349 1034.5,-349 1034.5,-349 966.5,-394 966.5,-394 966.5,-394 936.6296,-410.5166 912.3034,-423.9675"/>
<polygon fill="#000000" stroke="#000000" stroke-width="1.5" points="901.6438,-429.8617 909.5323,-419.3292 906.7736,-426.7395 912.0244,-423.8361 912.1453,-424.0549 912.2663,-424.2737 907.0156,-427.1771 914.7584,-428.7806 901.6438,-429.8617 901.6438,-429.8617"/>
</a>
</g>
<text text-anchor="middle" x="1078" y="-227.6" font-family="Courier New" font-size="8.00" fill="#ff0000">battery charger</text>
</g>
<!-- battery discharger (multi&#45;link)&#45;&gt;electricity bus (bus) -->
<g id="edge9" class="edge">
<title>battery discharger (multi&#45;link)&#45;&gt;electricity bus (bus)</title>
<g id="a_edge9"><a xlink:title="Multi&#45;link: battery discharger&#10;From: EV battery bus (bus0)&#10;To: electricity bus (bus1)&#10;Carrier: battery discharger&#10;Extendable nominal power: True&#10;Nominal power: 0.00 MW&#10;Efficiency: 0.98&#10;Optimised nominal power: 0.00 MW">
<path fill="none" stroke="#000000" stroke-width="1.5" d="M830.1503,-307.6411C834.159,-296.1812 855.7328,-234.5085 867.6226,-200.519"/>
<polygon fill="#000000" stroke="#000000" stroke-width="1.5" points="871.6486,-189.0101 872.7834,-202.1201 869.9034,-194.7561 867.9222,-200.4196 867.6862,-200.3371 867.4502,-200.2545 869.4314,-194.591 862.5891,-198.554 871.6486,-189.0101 871.6486,-189.0101"/>
</a>
</g>
<text text-anchor="middle" x="905" y="-227.6" font-family="Courier New" font-size="8.00" fill="#ff0000">battery discharger</text>
</g>
<!-- ICE Vehicle (multi&#45;link)&#45;&gt;land transport bus (bus) -->
<g id="edge11" class="edge">
<title>ICE Vehicle (multi&#45;link)&#45;&gt;land transport bus (bus)</title>
<g id="a_edge11"><a xlink:title="Multi&#45;link: ICE Vehicle&#10;From: oil bus (bus0)&#10;To: land transport bus (bus1)&#10;Carrier: land transport demand&#10;Extendable nominal power: True&#10;Nominal power: 0.00 MW&#10;Efficiency: 0.30&#10;Optimised nominal power: 0.00 MW">
<path fill="none" stroke="#000000" stroke-width="1.5" d="M382.2895,-308.3632C397.5995,-298.6373 507.2479,-228.9814 559.6919,-195.6655"/>
<polygon fill="#000000" stroke="#000000" stroke-width="1.5" points="569.9601,-189.1425 562.7267,-200.1352 565.0297,-192.5708 559.9652,-195.7882 559.8311,-195.5771 559.6971,-195.3661 564.7616,-192.1488 556.9355,-191.0191 569.9601,-189.1425 569.9601,-189.1425"/>
</a>
</g>
<text text-anchor="middle" x="537.5" y="-227.6" font-family="Courier New" font-size="8.00" fill="#ff0000">ICE Vehicle</text>
</g>
<!-- ICE Vehicle (multi&#45;link)&#45;&gt;co2 atmosphere (bus) -->
<g id="edge12" class="edge">
<title>ICE Vehicle (multi&#45;link)&#45;&gt;co2 atmosphere (bus)</title>
<g id="a_edge12"><a xlink:title="Multi&#45;link: ICE Vehicle&#10;From: oil bus (bus0)&#10;To: co2 atmosphere (bus2)&#10;Carrier: land transport demand&#10;Extendable nominal power: True&#10;Nominal power: 0.00 MW&#10;Efficiency: 0.08&#10;Optimised nominal power: 0.00 MW">
<path fill="none" stroke="#000000" stroke-width="1.5" d="M379.1809,-308.1896C369.0889,-298.1639 304.5,-234 304.5,-234 304.5,-234 302.9405,-216.5341 301.5635,-201.1108"/>
<polygon fill="#000000" stroke="#000000" stroke-width="1.5" points="300.4878,-189.0638 306.9337,-200.536 301.2705,-195.0178 301.8041,-200.994 301.5551,-201.0163 301.3061,-201.0385 300.7725,-195.0623 296.1765,-201.4965 300.4878,-189.0638 300.4878,-189.0638"/>
</a>
</g>
<text text-anchor="middle" x="333.5" y="-227.6" font-family="Courier New" font-size="8.00" fill="#ff0000">ICE Vehicle</text>
</g>
<!-- EV (multi&#45;link)&#45;&gt;land transport bus (bus) -->
<g id="edge14" class="edge">
<title>EV (multi&#45;link)&#45;&gt;land transport bus (bus)</title>
<g id="a_edge14"><a xlink:title="Multi&#45;link: EV&#10;From: EV battery bus (bus0)&#10;To: land transport bus (bus1)&#10;Carrier: land transport demand&#10;Extendable nominal power: True&#10;Nominal power: 0.00 MW&#10;Efficiency: 1.00&#10;Optimised nominal power: 0.00 MW">
<path fill="none" stroke="#000000" stroke-width="1.5" d="M599.3304,-307.6411C598.2892,-296.2317 592.7062,-235.0509 589.5961,-200.9698"/>
<polygon fill="#000000" stroke="#000000" stroke-width="1.5" points="588.5047,-189.0101 594.973,-200.4696 589.299,-194.9625 589.8443,-200.9377 589.5953,-200.9604 589.3464,-200.9831 588.8011,-195.008 584.2177,-201.4512 588.5047,-189.0101 588.5047,-189.0101"/>
</a>
</g>
<text text-anchor="middle" x="597" y="-227.6" font-family="Courier New" font-size="8.00" fill="#ff0000">EV</text>
</g>
</g>
</svg>
