<?xml version="1.0" encoding="UTF-8" standalone="no"?>
<!DOCTYPE svg PUBLIC "-//W3C//DTD SVG 1.1//EN"
 "http://www.w3.org/Graphics/SVG/1.1/DTD/svg11.dtd">
<!-- Generated by graphviz version 2.40.1 (20161225.0304)
 -->
<!-- Title: My Network Pages: 1 -->
<svg width="567pt" height="562pt"
 viewBox="0.00 0.00 567.00 562.00" xmlns="http://www.w3.org/2000/svg" xmlns:xlink="http://www.w3.org/1999/xlink">
<g id="graph0" class="graph" transform="scale(1 1) rotate(0) translate(4 558)">
<title>My Network</title>
<text text-anchor="middle" x="279.5" y="-538.8" font-family="Times,serif" font-size="14.00" fill="#000000">My Network</text>
<text text-anchor="middle" x="279.5" y="-507.8" font-family="Times,serif" font-size="14.00" fill="#000000"> &#160;&#160;&#160;&#160;&#160;&#160;&#160;&#160;&#160;&#160;</text>
<!-- oil (generator) -->
<g id="node1" class="node">
<title>oil (generator)</title>
<g id="a_node1"><a xlink:title="Generator: oil&#10;Bus: oil&#10;Carrier: oil&#10;Extendable nominal power: True&#10;Nominal power: 0.00 MW&#10;Power set: 0.00 MW&#10;Efficiency: 1.00&#10;Capital cost: 0.00 currency/MW&#10;Marginal cost: 6.00 currency/MWh&#10;Optimised nominal power: 6014.95 MW">
<ellipse fill="none" stroke="#000000" stroke-width="2" cx="108" cy="-460.5" rx="39.5" ry="39.5"/>
<text text-anchor="middle" x="108" y="-458.6" font-family="Courier New" font-size="8.00" fill="#ff0000">oil</text>
</a>
</g>
</g>
<!-- oil (bus) -->
<g id="node2" class="node">
<title>oil (bus)</title>
<g id="a_node2"><a xlink:title="Bus: oil&#10;Carrier: oil&#10;Unit: &#10;Generators: 1&#10;Loads: 1&#10;Stores: 0&#10;Incoming links: 0&#10;Outgoing links: 0">
<polygon fill="none" stroke="transparent" stroke-width="7" points="216,-348 0,-348 0,-326 216,-326 216,-348"/>
<polyline fill="none" stroke="#000000" stroke-width="7" points="0,-326 216,-326 "/>
<text text-anchor="middle" x="108" y="-335.1" font-family="Courier New" font-size="8.00" fill="#ff0000">oil</text>
</a>
</g>
</g>
<!-- oil (generator)&#45;&gt;oil (bus) -->
<g id="edge1" class="edge">
<title>oil (generator)&#45;&gt;oil (bus)</title>
<path fill="none" stroke="#000000" stroke-width="1.5" d="M108,-420.744C108,-395.3591 108,-364.27 108,-348.0481"/>
</g>
<!-- ICE (load) -->
<g id="node5" class="node">
<title>ICE (load)</title>
<g id="a_node5"><a xlink:title="Load: ICE&#10;Bus: oil&#10;Carrier: &#10;Power set: [408.16, 390.80, 459.75, ...] MW">
<polygon fill="none" stroke="#000000" stroke-width="2" points="108,-159 158.5,-223.5 57.5,-223.5 108,-159"/>
<text text-anchor="middle" x="108" y="-200.1" font-family="Courier New" font-size="8.00" fill="#ff0000">ICE</text>
</a>
</g>
</g>
<!-- oil (bus)&#45;&gt;ICE (load) -->
<g id="edge3" class="edge">
<title>oil (bus)&#45;&gt;ICE (load)</title>
<path fill="none" stroke="#000000" stroke-width="1.5" d="M108,-325.9524C108,-303.6601 108,-252.9393 108,-223.758"/>
</g>
<!-- solar (generator) -->
<g id="node3" class="node">
<title>solar (generator)</title>
<g id="a_node3"><a xlink:title="Generator: solar&#10;Bus: electricity&#10;Carrier: &#10;Extendable nominal power: True&#10;Nominal power: 0.00 MW&#10;Power set: 0.00 MW&#10;Efficiency: 1.00&#10;Capital cost: 47097.40 currency/MW&#10;Marginal cost: 0.01 currency/MWh&#10;Optimised nominal power: 111.75 MW">
<ellipse fill="none" stroke="#000000" stroke-width="2" cx="451" cy="-460.5" rx="39.5" ry="39.5"/>
<text text-anchor="middle" x="451" y="-458.6" font-family="Courier New" font-size="8.00" fill="#ff0000">solar</text>
</a>
</g>
</g>
<!-- electricity (bus) -->
<g id="node4" class="node">
<title>electricity (bus)</title>
<g id="a_node4"><a xlink:title="Bus: electricity&#10;Carrier: AC&#10;Unit: &#10;Generators: 1&#10;Loads: 0&#10;Stores: 0&#10;Incoming links: 1&#10;Outgoing links: 1">
<polygon fill="none" stroke="transparent" stroke-width="7" points="559,-348 343,-348 343,-326 559,-326 559,-348"/>
<polyline fill="none" stroke="#000000" stroke-width="7" points="343,-326 559,-326 "/>
<text text-anchor="middle" x="451" y="-335.1" font-family="Courier New" font-size="8.00" fill="#ff0000">electricity</text>
</a>
</g>
</g>
<!-- solar (generator)&#45;&gt;electricity (bus) -->
<g id="edge2" class="edge">
<title>solar (generator)&#45;&gt;electricity (bus)</title>
<path fill="none" stroke="#000000" stroke-width="1.5" d="M451,-420.744C451,-395.3591 451,-364.27 451,-348.0481"/>
</g>
<!-- BEV (bus) -->
<g id="node7" class="node">
<title>BEV (bus)</title>
<g id="a_node7"><a xlink:title="Bus: BEV&#10;Carrier: AC&#10;Unit: &#10;Generators: 0&#10;Loads: 1&#10;Stores: 1&#10;Incoming links: 1&#10;Outgoing links: 1">
<polygon fill="none" stroke="transparent" stroke-width="7" points="503,-213 287,-213 287,-191 503,-191 503,-213"/>
<polyline fill="none" stroke="#000000" stroke-width="7" points="287,-191 503,-191 "/>
<text text-anchor="middle" x="395" y="-200.1" font-family="Courier New" font-size="8.00" fill="#ff0000">BEV</text>
</a>
</g>
</g>
<!-- electricity (bus)&#45;&gt;BEV (bus) -->
<g id="edge6" class="edge">
<title>electricity (bus)&#45;&gt;BEV (bus)</title>
<g id="a_edge6"><a xlink:title="Link: electricity_2_BEV&#10;From: electricity (bus0)&#10;To: BEV (bus1)&#10;Carrier: AC&#10;Extendable nominal power: False&#10;Nominal power: 1577.45 MW&#10;Efficiency: 0.90&#10;Capital cost: 0.00 currency/MW&#10;Marginal cost: 0.00 currency/MWh&#10;Optimised nominal power: 1577.45 MW">
<path fill="none" stroke="#000000" stroke-width="1.5" d="M421.6931,-325.9806C384.7468,-312.0888 326,-290 326,-290 326,-290 326,-281 326,-281 326,-281 356.6517,-245.906 377.0961,-222.4986"/>
<polygon fill="#000000" stroke="#000000" stroke-width="1.5" points="385.114,-213.3188 381.2871,-225.9091 381.3553,-218.0022 377.4083,-222.5213 377.22,-222.3568 377.0317,-222.1923 380.9787,-217.6733 373.1529,-218.8045 385.114,-213.3188 385.114,-213.3188"/>
</a>
</g>
<text text-anchor="middle" x="371" y="-283.6" font-family="Courier New" font-size="8.00" fill="#ff0000">electricity_2_BEV</text>
</g>
<!-- BEV (load) -->
<g id="node6" class="node">
<title>BEV (load)</title>
<g id="a_node6"><a xlink:title="Load: BEV&#10;Bus: BEV&#10;Carrier: &#10;Power set: [13.61, 13.03, 15.33, ...] MW">
<polygon fill="none" stroke="#000000" stroke-width="2" points="310,0 360.5,-64.5 259.5,-64.5 310,0"/>
<text text-anchor="middle" x="310" y="-41.1" font-family="Courier New" font-size="8.00" fill="#ff0000">BEV</text>
</a>
</g>
</g>
<!-- BEV (bus)&#45;&gt;electricity (bus) -->
<g id="edge7" class="edge">
<title>BEV (bus)&#45;&gt;electricity (bus)</title>
<g id="a_edge7"><a xlink:title="Link: BEV_2_electricity&#10;From: BEV (bus0)&#10;To: electricity (bus1)&#10;Carrier: AC&#10;Extendable nominal power: False&#10;Nominal power: 1577.45 MW&#10;Efficiency: 0.90&#10;Capital cost: 0.00 currency/MW&#10;Marginal cost: 0.00 currency/MWh&#10;Optimised nominal power: 1577.45 MW">
<path fill="none" stroke="#000000" stroke-width="1.5" d="M400.0146,-213.3188C409.6925,-235.163 430,-281 430,-281 430,-281 436.6814,-298.8169 442.5067,-314.3513"/>
<polygon fill="#000000" stroke="#000000" stroke-width="1.5" points="446.8511,-325.9362 437.5814,-316.5963 444.5102,-320.406 442.4034,-314.788 442.6375,-314.7002 442.8716,-314.6125 444.9784,-320.2304 447.6937,-312.8042 446.8511,-325.9362 446.8511,-325.9362"/>
</a>
</g>
<text text-anchor="middle" x="479" y="-283.6" font-family="Courier New" font-size="8.00" fill="#ff0000">BEV_2_electricity</text>
</g>
<!-- BEV (bus)&#45;&gt;BEV (load) -->
<g id="edge4" class="edge">
<title>BEV (bus)&#45;&gt;BEV (load)</title>
<path fill="none" stroke="#000000" stroke-width="1.5" d="M389.023,-190.8194C375.0412,-164.6652 339.9991,-99.116 321.6372,-64.7684"/>
</g>
<!-- battery (store) -->
<g id="node8" class="node">
<title>battery (store)</title>
<g id="a_node8"><a xlink:title="Store: battery&#10;Bus: BEV&#10;Carrier: AC&#10;Extendable nominal energy: False&#10;Nominal energy: 3585.12 MWh&#10;Power set: 0.00 MW&#10;Cyclic energy: True&#10;Capital cost: 0.00 currency/MW&#10;Marginal cost: 0.00 currency/MWh&#10;Optimised nominal energy: 3585.12 MWh">
<polygon fill="none" stroke="#000000" stroke-width="2" points="527,-61 433,-61 433,-25 527,-25 527,-61"/>
<text text-anchor="middle" x="480" y="-41.1" font-family="Courier New" font-size="8.00" fill="#ff0000">battery</text>
</a>
</g>
</g>
<!-- BEV (bus)&#45;&gt;battery (store) -->
<g id="edge5" class="edge">
<title>BEV (bus)&#45;&gt;battery (store)</title>
<path fill="none" stroke="#000000" stroke-width="1.5" d="M406.7204,-180.0759C421.8113,-151.8471 448.0692,-102.7294 464.7144,-71.5931"/>
<polygon fill="#000000" stroke="#000000" stroke-width="1.5" points="400.977,-190.8194 401.8723,-177.6909 403.5853,-185.4102 406.414,-180.1189 406.6345,-180.2367 406.855,-180.3546 404.0262,-185.6459 411.3967,-182.7826 400.977,-190.8194 400.977,-190.8194"/>
<polygon fill="#000000" stroke="#000000" stroke-width="1.5" points="470.3734,-61.0073 469.4782,-74.1359 467.7652,-66.4165 464.9364,-71.7079 464.716,-71.59 464.4955,-71.4722 467.3242,-66.1808 459.9538,-69.0442 470.3734,-61.0073 470.3734,-61.0073"/>
</g>
</g>
</svg>
