<?xml version="1.0" encoding="UTF-8" standalone="no"?>
<!DOCTYPE svg PUBLIC "-//W3C//DTD SVG 1.1//EN"
 "http://www.w3.org/Graphics/SVG/1.1/DTD/svg11.dtd">
<!-- Generated by graphviz version 2.40.1 (20161225.0304)
 -->
<!-- Title: My Network Pages: 1 -->
<svg width="562pt" height="562pt"
 viewBox="0.00 0.00 562.00 562.00" xmlns="http://www.w3.org/2000/svg" xmlns:xlink="http://www.w3.org/1999/xlink">
<g id="graph0" class="graph" transform="scale(1 1) rotate(0) translate(4 558)">
<title>My Network</title>
<text text-anchor="middle" x="277" y="-538.8" font-family="Times,serif" font-size="14.00" fill="#000000">My Network</text>
<text text-anchor="middle" x="277" y="-507.8" font-family="Times,serif" font-size="14.00" fill="#000000"> &#160;&#160;&#160;&#160;&#160;&#160;&#160;&#160;&#160;&#160;</text>
<!-- oil (generator) -->
<g id="node1" class="node">
<title>oil (generator)</title>
<g id="a_node1"><a xlink:title="Generator: oil&#10;Bus: oil&#10;Carrier: oil&#10;Extendable nominal power: True&#10;Nominal power: 0.00 MW&#10;Power set: 0.00 MW&#10;Efficiency: 1.00&#10;Capital cost: 0.00 currency/MW&#10;Marginal cost: 50.00 currency/MWh&#10;Optimised nominal power: 0.00 MW">
<ellipse fill="none" stroke="#000000" stroke-width="2" cx="108" cy="-460.5" rx="39.5" ry="39.5"/>
<text text-anchor="middle" x="108" y="-458.6" font-family="Courier New" font-size="8.00" fill="#ff0000">oil</text>
</a>
</g>
</g>
<!-- oil (bus) -->
<g id="node2" class="node">
<title>oil (bus)</title>
<g id="a_node2"><a xlink:title="Bus: oil&#10;Carrier: oil&#10;Unit: &#10;Generators: 1&#10;Loads: 1&#10;Stores: 0&#10;Incoming links: 0&#10;Outgoing links: 0">
<polygon fill="none" stroke="transparent" stroke-width="7" points="216,-348 0,-348 0,-326 216,-326 216,-348"/>
<polyline fill="none" stroke="#000000" stroke-width="7" points="0,-326 216,-326 "/>
<text text-anchor="middle" x="108" y="-335.1" font-family="Courier New" font-size="8.00" fill="#ff0000">oil</text>
</a>
</g>
</g>
<!-- oil (generator)&#45;&gt;oil (bus) -->
<g id="edge1" class="edge">
<title>oil (generator)&#45;&gt;oil (bus)</title>
<path fill="none" stroke="#000000" stroke-width="1.5" d="M108,-420.744C108,-395.3591 108,-364.27 108,-348.0481"/>
</g>
<!-- ICEV (load) -->
<g id="node5" class="node">
<title>ICEV (load)</title>
<g id="a_node5"><a xlink:title="Load: ICEV&#10;Bus: oil&#10;Carrier: &#10;Power set: [408.16, 390.80, 459.75, ...] MW">
<polygon fill="none" stroke="#000000" stroke-width="2" points="108,-159 158.5,-223.5 57.5,-223.5 108,-159"/>
<text text-anchor="middle" x="108" y="-200.1" font-family="Courier New" font-size="8.00" fill="#ff0000">ICEV</text>
</a>
</g>
</g>
<!-- oil (bus)&#45;&gt;ICEV (load) -->
<g id="edge3" class="edge">
<title>oil (bus)&#45;&gt;ICEV (load)</title>
<path fill="none" stroke="#000000" stroke-width="1.5" d="M108,-325.9524C108,-303.6601 108,-252.9393 108,-223.758"/>
</g>
<!-- solar (generator) -->
<g id="node3" class="node">
<title>solar (generator)</title>
<g id="a_node3"><a xlink:title="Generator: solar&#10;Bus: electricity&#10;Carrier: &#10;Extendable nominal power: True&#10;Nominal power: 0.00 MW&#10;Power set: 0.00 MW&#10;Efficiency: 1.00&#10;Capital cost: 56383.09 currency/MW&#10;Marginal cost: 0.01 currency/MWh&#10;Optimised nominal power: 0.00 MW">
<ellipse fill="none" stroke="#000000" stroke-width="2" cx="396" cy="-460.5" rx="39.5" ry="39.5"/>
<text text-anchor="middle" x="396" y="-458.6" font-family="Courier New" font-size="8.00" fill="#ff0000">solar</text>
</a>
</g>
</g>
<!-- electricity (bus) -->
<g id="node4" class="node">
<title>electricity (bus)</title>
<g id="a_node4"><a xlink:title="Bus: electricity&#10;Carrier: AC&#10;Unit: &#10;Generators: 1&#10;Loads: 0&#10;Stores: 0&#10;Incoming links: 1&#10;Outgoing links: 1">
<polygon fill="none" stroke="transparent" stroke-width="7" points="504,-348 288,-348 288,-326 504,-326 504,-348"/>
<polyline fill="none" stroke="#000000" stroke-width="7" points="288,-326 504,-326 "/>
<text text-anchor="middle" x="396" y="-335.1" font-family="Courier New" font-size="8.00" fill="#ff0000">electricity</text>
</a>
</g>
</g>
<!-- solar (generator)&#45;&gt;electricity (bus) -->
<g id="edge2" class="edge">
<title>solar (generator)&#45;&gt;electricity (bus)</title>
<path fill="none" stroke="#000000" stroke-width="1.5" d="M396,-420.744C396,-395.3591 396,-364.27 396,-348.0481"/>
</g>
<!-- BEV (bus) -->
<g id="node7" class="node">
<title>BEV (bus)</title>
<g id="a_node7"><a xlink:title="Bus: BEV&#10;Carrier: AC&#10;Unit: &#10;Generators: 0&#10;Loads: 1&#10;Stores: 1&#10;Incoming links: 1&#10;Outgoing links: 1">
<polygon fill="none" stroke="transparent" stroke-width="7" points="530,-213 314,-213 314,-191 530,-191 530,-213"/>
<polyline fill="none" stroke="#000000" stroke-width="7" points="314,-191 530,-191 "/>
<text text-anchor="middle" x="422" y="-200.1" font-family="Courier New" font-size="8.00" fill="#ff0000">BEV</text>
</a>
</g>
</g>
<!-- electricity (bus)&#45;&gt;BEV (bus) -->
<g id="edge6" class="edge">
<title>electricity (bus)&#45;&gt;BEV (bus)</title>
<g id="a_edge6"><a xlink:title="Link: charge&#10;From: electricity (bus0)&#10;To: BEV (bus1)&#10;Carrier: &#10;Extendable nominal power: False&#10;Nominal power: 1577.45 MW&#10;Efficiency: 0.90&#10;Capital cost: 0.00 currency/MW&#10;Marginal cost: 0.00 currency/MWh&#10;Optimised nominal power: 0.00 MW">
<path fill="none" stroke="#000000" stroke-width="1.5" d="M379.8849,-325.8617C359.7764,-311.9631 328,-290 328,-290 328,-290 328,-281 328,-281 328,-281 371.262,-244.6415 399.0877,-221.2561"/>
<polygon fill="#000000" stroke="#000000" stroke-width="1.5" points="408.5321,-213.3188 402.8198,-225.1734 404.0997,-217.3705 399.5064,-221.2308 399.3455,-221.0394 399.1847,-220.848 403.778,-216.9877 395.8713,-216.9055 408.5321,-213.3188 408.5321,-213.3188"/>
</a>
</g>
<text text-anchor="middle" x="344" y="-283.6" font-family="Courier New" font-size="8.00" fill="#ff0000">charge</text>
</g>
<!-- BEV (load) -->
<g id="node6" class="node">
<title>BEV (load)</title>
<g id="a_node6"><a xlink:title="Load: BEV&#10;Bus: BEV&#10;Carrier: &#10;Power set: [13.61, 13.03, 15.33, ...] MW">
<polygon fill="none" stroke="#000000" stroke-width="2" points="337,0 387.5,-64.5 286.5,-64.5 337,0"/>
<text text-anchor="middle" x="337" y="-41.1" font-family="Courier New" font-size="8.00" fill="#ff0000">BEV</text>
</a>
</g>
</g>
<!-- BEV (bus)&#45;&gt;electricity (bus) -->
<g id="edge7" class="edge">
<title>BEV (bus)&#45;&gt;electricity (bus)</title>
<g id="a_edge7"><a xlink:title="Link: discharge&#10;From: BEV (bus0)&#10;To: electricity (bus1)&#10;Carrier: &#10;Extendable nominal power: False&#10;Nominal power: 1577.45 MW&#10;Efficiency: 0.90&#10;Capital cost: 0.00 currency/MW&#10;Marginal cost: 0.00 currency/MWh&#10;Optimised nominal power: 0.00 MW">
<path fill="none" stroke="#000000" stroke-width="1.5" d="M419.8429,-213.2003C415.5905,-235.2803 406.0496,-284.8192 400.4109,-314.0974"/>
<polygon fill="#000000" stroke="#000000" stroke-width="1.5" points="398.1277,-325.9524 395.0946,-313.1477 399.0169,-320.0134 400.1517,-314.1216 400.3972,-314.1689 400.6427,-314.2162 399.5079,-320.1079 405.6997,-315.1902 398.1277,-325.9524 398.1277,-325.9524"/>
</a>
</g>
<text text-anchor="middle" x="431" y="-283.6" font-family="Courier New" font-size="8.00" fill="#ff0000">discharge</text>
</g>
<!-- BEV (bus)&#45;&gt;BEV (load) -->
<g id="edge4" class="edge">
<title>BEV (bus)&#45;&gt;BEV (load)</title>
<path fill="none" stroke="#000000" stroke-width="1.5" d="M416.023,-190.8194C402.0412,-164.6652 366.9991,-99.116 348.6372,-64.7684"/>
</g>
<!-- battery (store) -->
<g id="node8" class="node">
<title>battery (store)</title>
<g id="a_node8"><a xlink:title="Store: battery&#10;Bus: BEV&#10;Carrier: &#10;Extendable nominal energy: False&#10;Nominal energy: 3585.12 MWh&#10;Power set: 0.00 MW&#10;Cyclic energy: True&#10;Capital cost: 0.00 currency/MW&#10;Marginal cost: 0.00 currency/MWh&#10;Optimised nominal energy: 0.00 MWh">
<polygon fill="none" stroke="#000000" stroke-width="2" points="554,-61 460,-61 460,-25 554,-25 554,-61"/>
<text text-anchor="middle" x="507" y="-41.1" font-family="Courier New" font-size="8.00" fill="#ff0000">battery</text>
</a>
</g>
</g>
<!-- BEV (bus)&#45;&gt;battery (store) -->
<g id="edge5" class="edge">
<title>BEV (bus)&#45;&gt;battery (store)</title>
<path fill="none" stroke="#000000" stroke-width="1.5" d="M433.7204,-180.0759C448.8113,-151.8471 475.0692,-102.7294 491.7144,-71.5931"/>
<polygon fill="#000000" stroke="#000000" stroke-width="1.5" points="427.977,-190.8194 428.8723,-177.6909 430.5853,-185.4102 433.414,-180.1189 433.6345,-180.2367 433.855,-180.3546 431.0262,-185.6459 438.3967,-182.7826 427.977,-190.8194 427.977,-190.8194"/>
<polygon fill="#000000" stroke="#000000" stroke-width="1.5" points="497.3734,-61.0073 496.4782,-74.1359 494.7652,-66.4165 491.9364,-71.7079 491.716,-71.59 491.4955,-71.4722 494.3242,-66.1808 486.9538,-69.0442 497.3734,-61.0073 497.3734,-61.0073"/>
</g>
</g>
</svg>
