<?xml version="1.0" encoding="UTF-8" standalone="no"?>
<!DOCTYPE svg PUBLIC "-//W3C//DTD SVG 1.1//EN"
 "http://www.w3.org/Graphics/SVG/1.1/DTD/svg11.dtd">
<!-- Generated by graphviz version 2.40.1 (20161225.0304)
 -->
<!-- Title: My Network Pages: 1 -->
<svg width="637pt" height="580pt"
 viewBox="0.00 0.00 637.00 580.28" xmlns="http://www.w3.org/2000/svg" xmlns:xlink="http://www.w3.org/1999/xlink">
<g id="graph0" class="graph" transform="scale(1 1) rotate(0) translate(4 576.279)">
<title>My Network</title>
<text text-anchor="middle" x="314.5" y="-557.079" font-family="Times,serif" font-size="14.00" fill="#000000">My Network</text>
<text text-anchor="middle" x="314.5" y="-526.079" font-family="Times,serif" font-size="14.00" fill="#000000"> &#160;&#160;&#160;&#160;&#160;&#160;&#160;&#160;&#160;&#160;</text>
<!-- generator_oil (generator) -->
<g id="node1" class="node">
<title>generator_oil (generator)</title>
<g id="a_node1"><a xlink:title="Generator: generator_oil&#10;Bus: bus_oil&#10;Carrier: carrier_oil&#10;Extendable nominal power: True&#10;Nominal power: 0.00 MW&#10;Power set: 0.00 MW&#10;Efficiency: 1.00&#10;Capital cost: 0.00 currency/MW&#10;Marginal cost: 6.00 currency/MWh&#10;Optimised nominal power: 6014.95 MW">
<ellipse fill="none" stroke="#000000" stroke-width="2" cx="108" cy="-469.6395" rx="43.5391" ry="43.5391"/>
<text text-anchor="middle" x="108" y="-467.7395" font-family="Courier New" font-size="8.00" fill="#ff0000">generator_oil</text>
</a>
</g>
</g>
<!-- bus_oil (bus) -->
<g id="node2" class="node">
<title>bus_oil (bus)</title>
<g id="a_node2"><a xlink:title="Bus: bus_oil&#10;Carrier: carrier_oil&#10;Unit: &#10;Generators: 1&#10;Loads: 1&#10;Stores: 0&#10;Incoming links: 0&#10;Outgoing links: 0">
<polygon fill="none" stroke="transparent" stroke-width="7" points="216,-348 0,-348 0,-326 216,-326 216,-348"/>
<polyline fill="none" stroke="#000000" stroke-width="7" points="0,-326 216,-326 "/>
<text text-anchor="middle" x="108" y="-335.1" font-family="Courier New" font-size="8.00" fill="#ff0000">bus_oil</text>
</a>
</g>
</g>
<!-- generator_oil (generator)&#45;&gt;bus_oil (bus) -->
<g id="edge1" class="edge">
<title>generator_oil (generator)&#45;&gt;bus_oil (bus)</title>
<path fill="none" stroke="#000000" stroke-width="1.5" d="M108,-425.8408C108,-398.3737 108,-365.0584 108,-348.0931"/>
</g>
<!-- load_ICE (load) -->
<g id="node5" class="node">
<title>load_ICE (load)</title>
<g id="a_node5"><a xlink:title="Load: load_ICE&#10;Bus: bus_oil&#10;Carrier: &#10;Power set: 0.00 MW">
<polygon fill="none" stroke="#000000" stroke-width="2" points="108,-159 168.3759,-223.5 47.6241,-223.5 108,-159"/>
<text text-anchor="middle" x="108" y="-200.1" font-family="Courier New" font-size="8.00" fill="#ff0000">load_ICE</text>
</a>
</g>
</g>
<!-- bus_oil (bus)&#45;&gt;load_ICE (load) -->
<g id="edge3" class="edge">
<title>bus_oil (bus)&#45;&gt;load_ICE (load)</title>
<path fill="none" stroke="#000000" stroke-width="1.5" d="M108,-325.9524C108,-303.6601 108,-252.9393 108,-223.758"/>
</g>
<!-- generator_solar (generator) -->
<g id="node3" class="node">
<title>generator_solar (generator)</title>
<g id="a_node3"><a xlink:title="Generator: generator_solar&#10;Bus: bus_electricity&#10;Carrier: &#10;Extendable nominal power: True&#10;Nominal power: 0.00 MW&#10;Power set: 0.00 MW&#10;Efficiency: 1.00&#10;Capital cost: 47097.40 currency/MW&#10;Marginal cost: 0.01 currency/MWh&#10;Optimised nominal power: 111.75 MW">
<ellipse fill="none" stroke="#000000" stroke-width="2" cx="426" cy="-469.6395" rx="48.7794" ry="48.7794"/>
<text text-anchor="middle" x="426" y="-467.7395" font-family="Courier New" font-size="8.00" fill="#ff0000">generator_solar</text>
</a>
</g>
</g>
<!-- bus_electricity (bus) -->
<g id="node4" class="node">
<title>bus_electricity (bus)</title>
<g id="a_node4"><a xlink:title="Bus: bus_electricity&#10;Carrier: AC&#10;Unit: &#10;Generators: 1&#10;Loads: 0&#10;Stores: 0&#10;Incoming links: 1&#10;Outgoing links: 1">
<polygon fill="none" stroke="transparent" stroke-width="7" points="534,-348 318,-348 318,-326 534,-326 534,-348"/>
<polyline fill="none" stroke="#000000" stroke-width="7" points="318,-326 534,-326 "/>
<text text-anchor="middle" x="426" y="-335.1" font-family="Courier New" font-size="8.00" fill="#ff0000">bus_electricity</text>
</a>
</g>
</g>
<!-- generator_solar (generator)&#45;&gt;bus_electricity (bus) -->
<g id="edge2" class="edge">
<title>generator_solar (generator)&#45;&gt;bus_electricity (bus)</title>
<path fill="none" stroke="#000000" stroke-width="1.5" d="M426,-420.6263C426,-394.3546 426,-364.187 426,-348.2426"/>
</g>
<!-- bus_BEV (bus) -->
<g id="node7" class="node">
<title>bus_BEV (bus)</title>
<g id="a_node7"><a xlink:title="Bus: bus_BEV&#10;Carrier: AC&#10;Unit: &#10;Generators: 0&#10;Loads: 1&#10;Stores: 1&#10;Incoming links: 1&#10;Outgoing links: 1">
<polygon fill="none" stroke="transparent" stroke-width="7" points="510,-213 294,-213 294,-191 510,-191 510,-213"/>
<polyline fill="none" stroke="#000000" stroke-width="7" points="294,-191 510,-191 "/>
<text text-anchor="middle" x="402" y="-200.1" font-family="Courier New" font-size="8.00" fill="#ff0000">bus_BEV</text>
</a>
</g>
</g>
<!-- bus_electricity (bus)&#45;&gt;bus_BEV (bus) -->
<g id="edge6" class="edge">
<title>bus_electricity (bus)&#45;&gt;bus_BEV (bus)</title>
<g id="a_edge6"><a xlink:title="Link: link_bus_electricity_2_bus_BEV&#10;From: bus_electricity (bus0)&#10;To: bus_BEV (bus1)&#10;Carrier: AC&#10;Extendable nominal power: False&#10;Nominal power: 1577.45 MW&#10;Efficiency: 0.90&#10;Capital cost: 0.00 currency/MW&#10;Marginal cost: 0.00 currency/MWh&#10;Optimised nominal power: 1577.45 MW">
<path fill="none" stroke="#000000" stroke-width="1.5" d="M396.2241,-325.9806C358.6868,-312.0888 299,-290 299,-290 299,-290 299,-281 299,-281 299,-281 347.2394,-244.0008 377.6924,-220.6437"/>
<polygon fill="#000000" stroke="#000000" stroke-width="1.5" points="387.2426,-213.3188 381.0072,-224.9067 382.6339,-217.1687 377.873,-220.8203 377.7208,-220.6219 377.5687,-220.4236 382.3296,-216.772 374.4344,-216.3371 387.2426,-213.3188 387.2426,-213.3188"/>
</a>
</g>
<text text-anchor="middle" x="378" y="-283.6" font-family="Courier New" font-size="8.00" fill="#ff0000">link_bus_electricity_2_bus_BEV</text>
</g>
<!-- load_BEV (load) -->
<g id="node6" class="node">
<title>load_BEV (load)</title>
<g id="a_node6"><a xlink:title="Load: load_BEV&#10;Bus: bus_BEV&#10;Carrier: &#10;Power set: 0.00 MW">
<polygon fill="none" stroke="#000000" stroke-width="2" points="312,0 372.3759,-64.5 251.6241,-64.5 312,0"/>
<text text-anchor="middle" x="312" y="-41.1" font-family="Courier New" font-size="8.00" fill="#ff0000">load_BEV</text>
</a>
</g>
</g>
<!-- bus_BEV (bus)&#45;&gt;bus_electricity (bus) -->
<g id="edge7" class="edge">
<title>bus_BEV (bus)&#45;&gt;bus_electricity (bus)</title>
<g id="a_edge7"><a xlink:title="Link: link_bus_BEV_2_bus_electricity&#10;From: bus_BEV (bus0)&#10;To: bus_electricity (bus1)&#10;Carrier: AC&#10;Extendable nominal power: False&#10;Nominal power: 1577.45 MW&#10;Efficiency: 0.90&#10;Capital cost: 0.00 currency/MW&#10;Marginal cost: 0.00 currency/MWh&#10;Optimised nominal power: 1577.45 MW">
<path fill="none" stroke="#000000" stroke-width="1.5" d="M411.886,-213.3188C430.9651,-235.163 471,-281 471,-281 471,-281 471,-290 471,-290 471,-290 457.5387,-304.0595 445.3411,-316.7993"/>
<polygon fill="#000000" stroke="#000000" stroke-width="1.5" points="436.8932,-325.6226 441.2917,-313.2204 440.8621,-321.1159 445.0116,-316.782 445.1921,-316.9549 445.3727,-317.1278 441.2233,-321.4616 449.0926,-320.6894 436.8932,-325.6226 436.8932,-325.6226"/>
</a>
</g>
<text text-anchor="middle" x="550" y="-283.6" font-family="Courier New" font-size="8.00" fill="#ff0000">link_bus_BEV_2_bus_electricity</text>
</g>
<!-- bus_BEV (bus)&#45;&gt;load_BEV (load) -->
<g id="edge4" class="edge">
<title>bus_BEV (bus)&#45;&gt;load_BEV (load)</title>
<path fill="none" stroke="#000000" stroke-width="1.5" d="M395.6714,-190.8194C380.8671,-164.6652 343.7638,-99.116 324.3217,-64.7684"/>
</g>
<!-- store_battery (store) -->
<g id="node8" class="node">
<title>store_battery (store)</title>
<g id="a_node8"><a xlink:title="Store: store_battery&#10;Bus: bus_BEV&#10;Carrier: AC&#10;Extendable nominal energy: False&#10;Nominal energy: 3585.12 MWh&#10;Cyclic energy: True&#10;Capital cost: 0.00 currency/MW&#10;Marginal cost: 0.00 currency/MWh&#10;Optimised nominal energy: 3585.12 MWh">
<polygon fill="none" stroke="#000000" stroke-width="2" points="538,-61 444,-61 444,-25 538,-25 538,-61"/>
<text text-anchor="middle" x="491" y="-41.1" font-family="Courier New" font-size="8.00" fill="#ff0000">store_battery</text>
</a>
</g>
</g>
<!-- bus_BEV (bus)&#45;&gt;store_battery (store) -->
<g id="edge5" class="edge">
<title>bus_BEV (bus)&#45;&gt;store_battery (store)</title>
<path fill="none" stroke="#000000" stroke-width="1.5" d="M414.272,-180.0759C430.073,-151.8471 457.5665,-102.7294 474.9951,-71.5931"/>
<polygon fill="#000000" stroke="#000000" stroke-width="1.5" points="408.2583,-190.8194 409.4075,-177.7106 410.9708,-185.4617 413.9014,-180.2261 414.1196,-180.3482 414.3377,-180.4703 411.4071,-185.7059 418.8316,-182.9858 408.2583,-190.8194 408.2583,-190.8194"/>
<polygon fill="#000000" stroke="#000000" stroke-width="1.5" points="480.9204,-61.0073 479.7712,-74.1161 478.2079,-66.365 475.2773,-71.6006 475.0591,-71.4785 474.841,-71.3564 477.7716,-66.1208 470.3471,-68.8409 480.9204,-61.0073 480.9204,-61.0073"/>
</g>
</g>
</svg>
